<?xml version="1.0" encoding="utf-8"?>
<!-- Generator: Adobe Illustrator 16.0.4, SVG Export Plug-In . SVG Version: 6.00 Build 0)  -->
<!DOCTYPE svg PUBLIC "-//W3C//DTD SVG 1.1//EN" "http://www.w3.org/Graphics/SVG/1.1/DTD/svg11.dtd" [
	<!ENTITY ns_flows "http://ns.adobe.com/Flows/1.0/">
	<!ENTITY ns_extend "http://ns.adobe.com/Extensibility/1.0/">
	<!ENTITY ns_ai "http://ns.adobe.com/AdobeIllustrator/10.0/">
	<!ENTITY ns_graphs "http://ns.adobe.com/Graphs/1.0/">
]>
<svg version="1.1" id="Layer_1" xmlns:x="&ns_extend;" xmlns:i="&ns_ai;" xmlns:graph="&ns_graphs;"
	 xmlns="http://www.w3.org/2000/svg" xmlns:xlink="http://www.w3.org/1999/xlink" xmlns:a="http://ns.adobe.com/AdobeSVGViewerExtensions/3.0/"
	 x="0px" y="0px" width="324.799px" height="406.358px" viewBox="0 0 324.799 406.358" enable-background="new 0 0 324.799 406.358"
	 xml:space="preserve">
<path fill="#EFF3C6" d="M193.268,238.126l-1.822-1.302l-0.521,1.042l1.823,1.041L193.268,238.126z M197.175,274.064l-1.823-1.042
	l-0.521,0.781l1.822,1.303L197.175,274.064z M196.653,268.075l-1.822-1.042l-0.521,0.781l1.562,1.302L196.653,268.075z
	 M194.049,244.116l-1.822-1.042l-0.521,0.781l1.823,1.042L194.049,244.116z M203.685,278.491l-4.947-3.385l-0.781,0.781l5.208,3.385
	L203.685,278.491z M195.872,262.085l-1.823-1.042l-0.521,0.781l1.823,1.303L195.872,262.085z M192.747,232.137l-1.823-1.303
	l-0.521,1.042l1.823,1.042L192.747,232.137z M195.352,256.096l-1.823-1.042l-0.521,0.781l1.823,1.302L195.352,256.096z
	 M194.57,250.105l-1.823-1.041l-0.521,0.781l1.822,1.302L194.57,250.105z M190.664,214.167l-1.823-1.302l-0.521,0.781l1.822,1.302
	L190.664,214.167z M191.445,220.157l-1.823-1.302l-0.521,1.041l1.822,1.042L191.445,220.157z M191.966,226.146l-1.823-1.302
	l-0.521,1.042l1.823,1.041L191.966,226.146z M224.519,209.479l2.604,1.562l0.521-1.041l-2.344-1.562L224.519,209.479z
	 M204.206,273.283l-4.948-3.386l-0.521,0.781l4.947,3.386L204.206,273.283z M203.164,283.7l-5.208-3.386l-0.521,0.781l5.209,3.386
	L203.164,283.7z M218.529,211.042l0.521-1.041l-2.344-1.562l-0.781,1.041L218.529,211.042z M201.56,182.556h4.688
	c7.292,0,19.792-1.822,19.792-20.834V15.886C226.039,2.083,215.622,0,206.247,0h-4.688c-8.073,0-20.053,2.083-20.053,18.49v147.138
	C181.507,180.733,195.83,182.556,201.56,182.556z M198.435,17.709c0-6.25,10.677-6.511,10.677,0v149.222
	c-0.26,5.209-10.416,5.209-10.677,0V17.709z M281.829,386.307l-9.635-6.251l-0.521,0.781l9.636,6.251L281.829,386.307z
	 M278.965,378.754l-6.771-4.167l-0.521,0.781l6.771,4.428L278.965,378.754z M200.82,304.534l-2.083-1.562l-0.521,1.041l2.084,1.303
	L200.82,304.534z M202.383,288.908l-5.729-3.906l-0.521,1.042l5.729,3.646L202.383,288.908z M195.612,279.794l1.562,1.302
	l0.781-0.781l-1.823-1.302L195.612,279.794z M199.519,310.523l0.781-0.781l-1.042-0.521l-0.521,0.781L199.519,310.523z
	 M201.862,294.117l-4.428-3.125l-0.521,1.041l4.427,2.865L201.862,294.117z M201.341,299.325l-3.385-2.344l-0.521,1.042l3.386,2.083
	L201.341,299.325z M212.539,330.055l2.084,1.562l0.781-1.041l-2.344-1.303L212.539,330.055z M209.153,360.264l-0.521,0.781
	l2.344,1.562l0.521-0.781L209.153,360.264z M209.935,355.056l-0.521,0.781l1.823,1.302l0.521-0.781L209.935,355.056z
	 M208.633,365.473l-0.521,0.781l2.604,1.823l0.781-0.781L208.633,365.473z M215.925,304.273l2.344,1.562l0.521-0.781l-2.344-1.562
	L215.925,304.273z M204.727,379.796l-0.521,0.781l5.989,3.906l0.521-0.781L204.727,379.796z M200.039,370.941l-0.521,1.042
	l10.938,7.031l0.521-0.781L200.039,370.941z M207.852,370.681l-0.521,0.781l3.386,2.084l0.521-0.781L207.852,370.681z
	 M278.965,373.024l-6.771-4.166l-0.521,0.781l6.511,4.427L278.965,373.024z M188.06,368.858l-0.521,0.781l16.406,10.677l0.521-0.781
	L188.06,368.858z M213.32,324.847l2.084,1.562l0.521-0.781l-2.083-1.562L213.32,324.847z M212.019,335.264l2.083,1.302l0.521-0.781
	l-2.084-1.302L212.019,335.264z M219.57,299.847l-2.604-1.563l-0.521,0.781l2.344,1.563L219.57,299.847z M215.144,309.481
	l2.344,1.562l0.521-1.041l-2.344-1.303L215.144,309.481z M213.842,319.898l2.344,1.303l0.521-0.781l-2.344-1.562L213.842,319.898z
	 M214.623,314.69l2.083,1.302l0.781-0.781l-2.344-1.562L214.623,314.69z M208.894,231.355l-4.948-3.125l-0.781,0.781l5.208,3.385
	L208.894,231.355z M207.591,241.772l-4.947-3.125l-0.521,0.781l4.948,3.385L207.591,241.772z M207.07,246.98l-4.948-3.125
	l-0.521,0.781l4.948,3.386L207.07,246.98z M204.727,268.075l-4.948-3.386l-0.521,0.781l4.948,3.386L204.727,268.075z
	 M208.372,236.563l-5.208-3.125l-0.521,0.781l5.208,3.386L208.372,236.563z M206.55,252.189l-4.948-3.125l-0.521,0.781l4.947,3.385
	L206.55,252.189z M205.508,262.605l-5.208-3.125l-0.521,0.781l4.948,3.386L205.508,262.605z M206.028,257.397l-4.947-3.125
	l-0.781,0.781l5.208,3.386L206.028,257.397z M210.456,389.171l-5.99-3.906l-0.521,0.781l5.989,3.906L210.456,389.171z
	 M183.893,211.042l0.781-1.041l-2.604-1.562l-0.521,1.041L183.893,211.042z M176.08,210.001l-2.604-1.562l-0.521,1.041l2.344,1.562
	L176.08,210.001z M185.716,352.191l-7.292-56.252h5.209l9.375,73.96h13.281l9.375-73.96h5.729l-8.333,61.46l-1.303,33.334h17.448
	V212.084h-16.927l-12.761,116.148l-12.501-116.148h-16.927v178.649h16.667L185.716,352.191z M222.175,383.963h-2.083l1.562-63.283
	h2.083L222.175,383.963z M175.819,219.637h4.167l19.271,141.408h0.781l19.011-141.408h4.688v67.97h-2.083V221.72h-0.781
	l-19.011,141.409h-4.428L178.424,221.72h-0.521v65.887h-2.084V219.637z M177.383,383.963l-1.563-63.283h2.084l1.562,63.283H177.383z
	 M210.717,215.73l-2.604-1.563l-0.781,0.781l2.604,1.823L210.717,215.73z M209.935,220.938l-4.166-2.604l-0.521,0.781l4.167,2.865
	L209.935,220.938z M211.237,210.521l-1.823-1.042l-0.521,0.781l1.823,1.303L211.237,210.521z M209.414,226.146l-4.948-3.125
	l-0.521,0.781l4.948,3.386L209.414,226.146z M299.799,392.557h1.562c6.771,0,19.531-1.823,19.792-16.407v-38.542
	c0-16.406-23.438-28.386-23.959-41.928v-67.71c0-4.167,6.771-4.427,6.771,0v67.97h17.188v-70.053
	c0-13.803-10.938-15.886-19.792-15.886h-1.562c-8.594,0-19.792,2.083-19.792,16.146v72.397c0.26,17.448,24.219,26.303,23.958,41.928
	v35.938c0,4.688-7.031,4.688-7.031,0.261v-38.803h-16.927v38.542C280.007,390.733,292.768,392.557,299.799,392.557z
	 M287.559,345.159h2.084v32.032c0,5.209,3.646,8.073,9.375,8.073h2.864c5.729,0,9.375-2.344,9.636-7.553v-39.844
	c0-7.032-5.469-13.021-11.198-19.011c-6.25-6.771-12.761-13.542-12.761-22.657v-70.054c0-6.771,4.428-10.156,11.198-10.156h3.646
	c5.729,0,11.198,2.865,11.198,10.156v62.502h-2.083v-62.502c0-5.208-3.646-8.072-9.375-8.072h-3.125
	c-5.729,0-9.375,2.864-9.375,8.072v69.793c0,8.595,6.25,15.104,12.239,21.355c5.729,6.25,11.719,12.76,11.459,20.833v40.105
	c0,5.729-4.688,8.594-11.198,9.114h-3.386c-6.771-0.521-11.198-3.646-11.198-10.156V345.159z M290.684,207.396l-0.521,1.042
	l1.823,1.302l0.521-1.042L290.684,207.396z M281.569,212.865l-0.521,0.781l1.303,0.781l0.521-0.781L281.569,212.865z
	 M285.476,209.74l-0.781,0.781l1.562,1.042l0.781-0.781L285.476,209.74z M306.569,206.615l-0.521,0.781l3.386,2.344l0.521-0.781
	L306.569,206.615z M297.715,206.615l-0.521,0.781l2.344,1.562l0.521-1.042L297.715,206.615z M276.621,338.128l-0.781,0.781
	l2.344,1.562l0.781-0.781L276.621,338.128z M211.237,340.472l2.083,1.303l0.521-0.781l-2.084-1.303L211.237,340.472z
	 M281.829,335.784l-2.604-1.562l-0.521,1.042l2.604,1.562L281.829,335.784z M302.143,238.647l0.781-0.781l-3.646-2.604l-0.781,1.042
	L302.143,238.647z M302.143,249.846l0.781-0.781l-3.646-2.604l-0.781,1.041L302.143,249.846z M302.143,244.116l0.781-0.781
	l-3.646-2.344l-0.781,0.781L302.143,244.116z M302.143,255.314l0.781-0.781l-3.646-2.344l-0.781,0.781L302.143,255.314z
	 M302.924,232.137l-3.646-2.344l-0.781,0.781l3.646,2.344L302.924,232.137z M317.507,308.7l-18.229-11.719l-0.521,0.781
	l18.229,11.979L317.507,308.7z M308.393,309.742l0.521-1.042l-4.948-3.125l-0.781,0.781L308.393,309.742z M278.965,345.159
	l-4.688-2.864l-0.521,0.781l4.427,2.864L278.965,345.159z M299.018,369.379l-0.781,0.781l3.906,2.604l0.781-0.781L299.018,369.379z
	 M324.018,336.565l0.521-0.781l-1.562-1.041l-0.521,0.781L324.018,336.565z M320.372,328.753l2.344,1.302l0.521-0.781l-2.344-1.562
	L320.372,328.753z M302.143,261.043l0.781-1.041l-3.646-2.344l-0.781,1.041L302.143,261.043z M323.497,217.553l-2.604-1.562
	l-0.781,0.781l2.865,1.823L323.497,217.553z M278.965,367.556l-6.771-4.167l-0.521,0.781l6.511,4.167L278.965,367.556z
	 M298.236,375.89l3.646,2.344l0.521-1.042l-3.385-2.344L298.236,375.89z M322.455,223.803l1.562,1.042l0.521-0.781l-1.562-1.042
	L322.455,223.803z M299.018,358.181l-0.781,0.781l3.906,2.604l0.781-0.781L299.018,358.181z M275.059,321.722l27.084,17.448
	l0.521-0.781l-27.084-17.709L275.059,321.722z M289.902,336.826l0.521-1.042l-5.47-3.386l-0.521,0.782L289.902,336.826z
	 M299.018,341.514l-0.781,0.781l3.906,2.604l0.781-1.042L299.018,341.514z M299.018,346.982l-0.781,0.781l3.906,2.604l0.781-0.781
	L299.018,346.982z M272.194,314.169l27.083,17.448l0.521-0.781l-27.084-17.448L272.194,314.169z M299.018,363.649l-0.781,1.042
	l3.906,2.604l0.781-1.042L299.018,363.649z M299.018,352.712l-0.781,0.781l3.906,2.604l0.781-1.042L299.018,352.712z
	 M322.455,229.532l1.562,1.042l0.781-1.042l-1.562-1.042L322.455,229.532z M278.965,272.502l-6.771-4.167l-0.521,0.781l6.511,4.167
	L278.965,272.502z M278.965,267.033l-6.771-4.428l-0.521,1.042l6.511,4.167L278.965,267.033z M278.965,277.971l-6.771-4.167
	l-0.521,1.042l6.511,4.167L278.965,277.971z M278.965,283.7l-6.771-4.167l-0.521,0.781l6.511,4.167L278.965,283.7z M278.965,255.835
	l-6.771-4.427l-0.521,1.041l6.511,4.167L278.965,255.835z M278.965,261.304l-6.771-4.167l-0.521,0.781l6.511,4.167L278.965,261.304z
	 M278.965,250.105l-6.771-4.167l-0.521,0.781l6.511,4.428L278.965,250.105z M278.965,244.637l-6.771-4.427l-0.521,1.041l6.511,4.167
	L278.965,244.637z M278.965,289.169l-6.771-4.167l-0.521,1.042l6.511,4.167L278.965,289.169z M278.965,294.898l-6.771-4.167
	l-0.521,0.781l6.511,4.167L278.965,294.898z M278.965,361.826l-6.771-4.166l-0.521,1.041l6.511,4.167L278.965,361.826z
	 M278.965,350.629l-6.771-4.167l-0.521,1.041l6.511,4.167L278.965,350.629z M278.965,356.357l-6.771-4.166l-0.521,0.781l6.511,4.166
	L278.965,356.357z M278.965,300.628l-6.771-4.428l-0.521,0.781l6.771,4.428L278.965,300.628z M281.048,307.398l-8.854-5.469
	l-0.521,0.781l8.594,5.469L281.048,307.398z M288.601,318.076l-16.406-10.678l-0.521,0.781l16.407,10.678L288.601,318.076z
	 M278.965,238.907l-6.771-4.166l-0.521,0.781l6.511,4.427L278.965,238.907z M302.143,288.908l0.781-0.781l-3.646-2.344l-0.781,0.781
	L302.143,288.908z M302.143,294.638l0.781-1.042l-3.646-2.344l-0.781,0.781L302.143,294.638z M320.111,304.794l-11.979-7.812
	l-0.521,1.042l11.979,7.812L320.111,304.794z M318.549,320.68l-3.906-2.604l-0.521,1.041l3.906,2.344L318.549,320.68z
	 M302.143,272.241l0.781-1.041l-3.646-2.344l-0.781,1.041L302.143,272.241z M302.143,283.439l0.781-1.041l-3.646-2.345l-0.781,1.042
	L302.143,283.439z M302.143,277.71l0.781-0.781l-3.646-2.344l-0.781,0.781L302.143,277.71z M299.214,177.348
	c6.51,0,13.021-3.386,13.021-10.157v-31.51h-2.083v31.51c0,3.906-3.646,8.074-10.938,8.074c-5.47,0-11.198-3.387-11.198-8.855
	V16.928c0.26-5.99,4.166-9.115,8.333-9.115h5.99c5.989,0,8.073,3.906,8.073,8.073V79.95h1.822V15.886
	c0.261-7.031-4.167-10.156-9.896-10.156h-5.99c-6.511,0-10.156,5.729-10.156,11.198v149.481
	C285.932,173.44,292.182,177.348,299.214,177.348z M278.965,222.24l-1.562-1.041l-0.521,1.041l1.562,1.042L278.965,222.24z
	 M278.965,227.709l-3.646-2.344l-0.781,1.042l3.646,2.344L278.965,227.709z M316.205,298.023l5.469,3.646l0.521-1.041l-5.47-3.646
	L316.205,298.023z M278.965,233.438l-5.729-3.646l-0.521,0.781l5.469,3.646L278.965,233.438z M302.143,266.513l0.781-0.782
	l-3.646-2.344l-0.781,0.781L302.143,266.513z M298.172,182.816h1.823c15.625,0,19.792-7.292,19.792-16.146
	c-0.261-15.625-0.261-38.542-0.261-38.542h-17.188v38.542c0.26,3.646-6.771,3.646-6.771,0V16.407c0.521-3.646,7.553-3.906,7.031,0
	V86.46h17.188V16.146c0.26-11.979-7.812-15.886-19.271-15.886h-2.083c-11.198,0-19.532,3.906-19.532,16.927v148.701
	C278.119,175.524,284.109,182.816,298.172,182.816z M279.682,17.188c0.781-11.979,7.812-15.365,18.751-15.365h2.083
	c11.198,0,17.969,3.385,17.969,14.323v68.751h-14.323V16.407c0.521-5.99-9.635-5.729-9.635,0V166.67
	c-0.521,5.729,9.635,5.729,9.635,0V129.69h13.803c0,5.469,0,23.698,0.261,36.979c0,8.333-3.386,14.584-18.229,14.584h-1.823
	c-13.281,0-18.49-6.251-18.49-15.365V17.188z M280.267,217.553l-1.302-0.781l-0.521,0.781l1.302,1.042L280.267,217.553z
	 M322.455,341.253l1.562,1.042l0.781-0.781l-1.562-1.042L322.455,341.253z M230.509,274.585l1.562,1.042l0.521-0.781l-1.562-1.042
	L230.509,274.585z M230.509,291.513l1.562,1.042l0.521-1.042l-1.562-1.042L230.509,291.513z M230.509,230.053l1.562,1.042
	l0.521-1.042l-1.562-1.041L230.509,230.053z M230.509,280.314l1.562,1.042l0.521-1.042l-1.562-1.042L230.509,280.314z
	 M230.509,285.783l1.562,1.042l0.521-0.781l-1.562-1.042L230.509,285.783z M230.509,313.909l1.562,0.781l0.521-0.781l-1.562-1.042
	L230.509,313.909z M230.509,302.711l1.562,1.042l0.521-1.042l-1.562-1.042L230.509,302.711z M230.509,308.18l1.562,1.042
	l0.521-0.781l-1.562-1.042L230.509,308.18z M230.509,263.387l1.562,1.042l0.521-0.781l-1.562-1.042L230.509,263.387z
	 M230.509,246.72l1.562,1.042l0.521-0.781l-1.562-1.042L230.509,246.72z M230.509,241.251l1.562,0.781l0.521-0.781l-1.562-1.041
	L230.509,241.251z M230.509,235.522l1.562,1.041l0.521-0.781l-1.562-1.041L230.509,235.522z M230.509,257.918l1.562,1.042
	l0.521-1.042l-1.562-0.781L230.509,257.918z M230.509,319.378l1.562,1.042l0.521-0.781l-1.562-1.042L230.509,319.378z
	 M230.509,269.116l1.562,1.042l0.521-1.042l-1.562-0.781L230.509,269.116z M230.509,252.189l1.562,1.041l0.521-0.781l-1.562-1.041
	L230.509,252.189z M230.509,296.981l1.562,1.042l0.521-0.781l-1.562-1.042L230.509,296.981z M230.509,386.566l1.562,0.781
	l0.521-0.781l-1.562-1.041L230.509,386.566z M230.509,380.837l1.562,1.042l0.521-0.781l-1.562-1.042L230.509,380.837z
	 M230.509,375.368l1.562,1.042l0.521-1.042l-1.562-1.041L230.509,375.368z M230.509,369.64l1.562,1.041l0.521-0.781l-1.562-1.041
	L230.509,369.64z M214.362,392.816l12.761,8.334l0.781-0.781l-13.021-8.594L214.362,392.816z M230.509,392.035l1.562,1.042
	l0.521-0.781l-1.562-1.042L230.509,392.035z M230.509,324.847l1.562,1.042l0.521-0.781l-1.562-1.042L230.509,324.847z
	 M222.956,392.816l6.511,4.167l0.521-1.042l-6.511-4.166L222.956,392.816z M230.509,341.774l1.562,1.041l0.521-1.041l-1.562-0.781
	L230.509,341.774z M230.509,336.045l1.562,1.042l0.521-0.781l-1.562-1.042L230.509,336.045z M230.509,330.576l1.562,1.041
	l0.521-1.041l-1.562-0.781L230.509,330.576z M230.509,358.441l1.562,1.041l0.521-0.781l-1.562-1.041L230.509,358.441z
	 M230.509,364.17l1.562,1.042l0.521-1.042l-1.562-1.041L230.509,364.17z M230.509,347.243l1.562,1.041l0.521-0.781l-1.562-1.041
	L230.509,347.243z M230.509,352.973l1.562,1.041l0.521-1.041l-1.562-1.042L230.509,352.973z M290.944,393.338l16.406,10.677
	l0.521-0.781l-16.407-10.677L290.944,393.338z M322.455,357.92l1.562,1.042l0.781-0.781l-1.562-1.042L322.455,357.92z
	 M322.455,285.263l1.562,1.042l0.781-0.781l-1.562-1.042L322.455,285.263z M322.455,274.064l1.562,1.042l0.781-0.781l-1.562-1.042
	L322.455,274.064z M322.455,279.794l1.562,1.041l0.781-1.041l-1.562-0.781L322.455,279.794z M322.455,352.451l1.562,1.042
	l0.781-1.042l-1.562-0.781L322.455,352.451z M322.455,296.461l1.562,1.041l0.781-0.781l-1.562-1.041L322.455,296.461z
	 M322.455,346.722l1.562,1.042l0.781-0.781l-1.562-1.042L322.455,346.722z M322.455,290.992l1.562,1.041l0.781-1.041l-1.562-1.042
	L322.455,290.992z M322.455,240.73l1.562,1.042l0.781-1.042l-1.562-1.042L322.455,240.73z M322.455,268.596l1.562,1.042l0.781-0.781
	l-1.562-1.042L322.455,268.596z M322.455,246.199l1.562,1.042l0.781-0.781l-1.562-1.042L322.455,246.199z M322.455,235.001
	l1.562,1.042l0.781-0.781l-1.562-1.042L322.455,235.001z M322.455,263.127l1.562,0.781l0.781-0.781l-1.562-1.042L322.455,263.127z
	 M230.509,224.324l1.562,1.041l0.521-0.781l-1.562-1.041L230.509,224.324z M322.455,257.397l1.562,1.042l0.781-0.781l-1.562-1.042
	L322.455,257.397z M322.455,251.929l1.562,0.781l0.781-0.781l-1.562-1.042L322.455,251.929z M271.673,386.566l29.688,19.271
	l0.521-1.042l-29.688-19.271L271.673,386.566z M301.361,394.64l10.417,6.771l0.521-1.042l-10.417-6.771L301.361,394.64z
	 M272.194,392.296l21.354,14.062l0.521-1.041l-21.354-13.803L272.194,392.296z M203.685,391.515l20.053,13.021l0.521-1.042
	l-19.792-12.761L203.685,391.515z M278.184,401.932l2.344,1.562l0.521-1.042l-2.344-1.562L278.184,401.932z M230.509,218.855
	l1.562,1.041l0.521-1.041l-1.562-1.042L230.509,218.855z M230.509,213.126l1.562,1.041l0.521-0.781l-1.562-1.041L230.509,213.126z
	 M322.455,369.118l1.562,1.042l0.781-0.781l-1.562-1.042L322.455,369.118z M322.195,380.316l1.302,0.781l0.781-1.042l-1.562-0.781
	L322.195,380.316z M322.455,374.848l1.562,1.042l0.781-1.042l-1.562-1.042L322.455,374.848z M308.653,393.598l6.25,4.167
	l0.521-0.781l-6.25-4.167L308.653,393.598z M322.455,363.649l1.562,1.042l0.781-1.042l-1.562-1.042L322.455,363.649z
	 M314.122,391.775l2.864,1.822l0.521-1.041l-2.864-1.823L314.122,391.775z M318.028,388.65l1.562,0.781l0.521-0.781l-1.562-0.781
	L318.028,388.65z M320.893,384.744l1.303,1.041l0.521-1.041l-1.302-0.781L320.893,384.744z M161.757,403.233l1.823,1.303
	l0.521-1.042l-1.822-1.042L161.757,403.233z M168.788,250.105l-6.51-4.167l-0.521,0.781l6.511,4.428L168.788,250.105z
	 M168.788,255.835l-6.51-4.427l-0.521,1.041l6.511,4.167L168.788,255.835z M168.788,311.565l-6.51-4.167l-0.521,0.781l6.511,4.427
	L168.788,311.565z M168.788,244.637l-6.51-4.427l-0.521,1.041l6.511,4.167L168.788,244.637z M168.788,267.033l-6.51-4.428
	l-0.521,1.042l6.511,4.167L168.788,267.033z M168.788,233.438l-6.51-4.167l-0.521,0.781l6.511,4.167L168.788,233.438z
	 M168.788,238.907l-6.51-4.166l-0.521,0.781l6.511,4.427L168.788,238.907z M168.788,227.709l-6.51-4.166l-0.521,0.781l6.511,4.427
	L168.788,227.709z M168.788,272.502l-6.51-4.167l-0.521,0.781l6.511,4.167L168.788,272.502z M168.788,294.898l-6.51-4.167
	l-0.521,0.781l6.511,4.167L168.788,294.898z M168.788,306.097l-6.51-4.167l-0.521,0.781l6.511,4.167L168.788,306.097z
	 M168.788,300.367l-6.51-4.167l-0.521,0.781l6.511,4.428L168.788,300.367z M168.788,277.971l-6.51-4.167l-0.521,1.042l6.511,4.167
	L168.788,277.971z M168.788,283.7l-6.51-4.167l-0.521,0.781l6.511,4.167L168.788,283.7z M168.788,289.169l-6.51-4.167l-0.521,1.042
	l6.511,4.167L168.788,289.169z M168.788,261.304l-6.51-4.167l-0.521,0.781l6.511,4.167L168.788,261.304z M185.195,316.514
	l-2.344-1.303l-0.521,0.781l2.084,1.562L185.195,316.514z M185.977,322.764l-2.344-1.562l-0.521,1.041l2.084,1.303L185.977,322.764z
	 M184.414,310.523l-2.344-1.562l-0.521,1.042l2.084,1.302L184.414,310.523z M186.497,328.753l-2.083-1.302l-0.521,0.781l2.084,1.562
	L186.497,328.753z M182.852,298.283l-2.084-1.302l-0.521,1.042l1.823,1.302L182.852,298.283z M209.935,350.889l2.084,1.303
	l0.521-1.042l-2.083-1.302L209.935,350.889z M183.633,304.534l-2.344-1.562l-0.521,0.781l2.084,1.562L183.633,304.534z
	 M168.788,216.512l-3.385-2.084l-0.521,0.781l3.386,2.344L168.788,216.512z M168.788,211.042l-1.562-1.041l-0.521,0.781l1.562,1.041
	L168.788,211.042z M190.403,359.223l-2.604-1.823l-0.781,0.781l2.865,1.823L190.403,359.223z M168.788,222.24l-5.469-3.646
	l-0.781,0.781l5.729,3.646L168.788,222.24z M188.841,346.982l-2.083-1.302l-0.521,0.781l2.084,1.562L188.841,346.982z
	 M188.06,340.993l-2.083-1.303l-0.521,0.781l2.084,1.303L188.06,340.993z M187.278,335.003l-2.083-1.562l-0.521,0.781l2.084,1.562
	L187.278,335.003z M187.018,352.712l2.084,1.302l0.521-0.781l-2.083-1.562L187.018,352.712z M105.727,9.115h-2.083V173.44h18.229
	v-2.082h-16.146V9.115z M161.757,397.765l10.417,6.771l0.521-1.042l-10.416-6.771L161.757,397.765z M210.717,345.681l1.822,1.302
	l0.781-1.042l-2.083-1.302L210.717,345.681z M161.757,392.035l19.011,12.501l0.521-1.042l-19.011-12.24L161.757,392.035z
	 M83.614,211.823L70.072,390.473h17.97l3.125-53.126h11.458l2.344,53.126h17.709L112,211.823H83.614z M112.521,384.744
	l-2.865-53.387H83.875l-3.906,53.387h-1.823l11.459-166.41h16.146l8.854,166.41H112.521z M113.019,3.646l0.261-1.562H96.091v178.65
	h33.334v-16.407h-16.406V3.646z M127.862,165.889v13.282H97.653V3.646h14.063v162.243H127.862z M171.393,392.816l13.281,8.595
	l0.521-0.781l-13.282-8.854L171.393,392.816z M203.685,396.983l11.459,7.553l0.521-1.042l-11.458-7.292L203.685,396.983z
	 M203.425,402.452l3.125,2.084l0.521-1.042l-3.125-1.823L203.425,402.452z M187.539,375.368l12.761,8.334l0.521-1.042l-12.761-8.073
	L187.539,375.368z M187.799,381.098l3.906,2.604l0.521-1.042l-3.906-2.604L187.799,381.098z M91.427,220.418l-7.552,108.855h25.781
	l-5.989-108.855H91.427z M91.688,323.805l5.729-97.137l4.688,97.137H91.688z M191.185,365.212l-3.386-2.083l-0.521,0.781
	l3.386,2.344L191.185,365.212z M179.986,392.816l6.771,4.428l0.521-0.781l-6.771-4.688L179.986,392.816z M188.06,392.296
	l1.562,1.042l0.521-0.781l-1.562-1.042L188.06,392.296z M189.883,386.827l-1.562-1.042l-0.521,1.042l1.562,1.042L189.883,386.827z
	 M4.427,227.449h9.115v146.617C12.5,380.056,0.261,377.191,0,377.191v15.365h13.803c0,0,17.188,0,17.188-16.667V212.345H4.427
	V227.449z M168.788,345.159l-6.51-4.166l-0.521,0.781l6.511,4.166L168.788,345.159z M168.788,339.69l-6.51-4.427l-0.521,1.042
	l6.511,4.166L168.788,339.69z M168.788,350.629l-6.51-4.167l-0.521,1.041l6.511,4.167L168.788,350.629z M168.788,356.357
	l-6.51-4.166l-0.521,0.781l6.511,4.166L168.788,356.357z M168.788,333.962l-6.51-4.167l-0.521,0.781l6.511,4.167L168.788,333.962z
	 M168.788,322.764l-6.51-4.167l-0.521,0.781l6.511,4.427L168.788,322.764z M168.788,328.492l-6.51-4.427l-0.521,1.042l6.511,4.166
	L168.788,328.492z M168.788,367.556l-6.51-4.167l-0.521,0.781l6.511,4.167L168.788,367.556z M168.788,389.952l-6.51-4.427
	l-0.521,1.041l6.511,4.167L168.788,389.952z M168.788,361.826l-6.51-4.166l-0.521,1.041l6.511,4.167L168.788,361.826z
	 M168.788,384.223l-6.51-4.167l-0.521,0.781l6.511,4.428L168.788,384.223z M168.788,317.295l-6.51-4.428l-0.521,1.042l6.511,4.167
	L168.788,317.295z M17.969,1.562H0v179.171h26.824c6.771,0,17.188-0.521,17.188-16.668v-35.417c0-6.25-2.604-9.636-5.729-11.719
	c3.125-2.864,5.729-7.031,5.729-12.239V17.709C44.011,1.562,29.688,1.302,17.969,1.562z M26.824,161.722
	c0.26,4.428-9.896,3.125-9.896,3.125v-36.719c0,0,9.896-1.562,9.896,2.864V161.722z M26.824,110.419
	c0,4.428-9.636,3.125-9.636,3.125V16.407c0,0,9.896-1.562,9.636,2.865V110.419z M168.788,378.754l-6.51-4.167l-0.521,0.781
	l6.511,4.167L168.788,378.754z M168.788,373.024l-6.51-4.166l-0.521,0.781l6.511,4.427L168.788,373.024z"/>
</svg>
