<?xml version="1.0" encoding="utf-8"?>
<!-- Generator: Adobe Illustrator 16.0.4, SVG Export Plug-In . SVG Version: 6.00 Build 0)  -->
<!DOCTYPE svg PUBLIC "-//W3C//DTD SVG 1.1//EN" "http://www.w3.org/Graphics/SVG/1.1/DTD/svg11.dtd" [
	<!ENTITY ns_flows "http://ns.adobe.com/Flows/1.0/">
	<!ENTITY ns_extend "http://ns.adobe.com/Extensibility/1.0/">
	<!ENTITY ns_ai "http://ns.adobe.com/AdobeIllustrator/10.0/">
	<!ENTITY ns_graphs "http://ns.adobe.com/Graphs/1.0/">
]>
<svg version="1.1" id="Layer_1" xmlns:x="&ns_extend;" xmlns:i="&ns_ai;" xmlns:graph="&ns_graphs;"
	 xmlns="http://www.w3.org/2000/svg" xmlns:xlink="http://www.w3.org/1999/xlink" xmlns:a="http://ns.adobe.com/AdobeSVGViewerExtensions/3.0/"
	 x="0px" y="0px" width="660.646px" height="821.599px" viewBox="0 0 660.646 821.599" enable-background="new 0 0 660.646 821.599"
	 xml:space="preserve">
<g>
	<g>
		<linearGradient id="SVGID_1_" gradientUnits="userSpaceOnUse" x1="-63.1948" y1="203.5249" x2="731.6008" y2="662.4004">
			<stop  offset="0" style="stop-color:#C6FFDD"/>
			<stop  offset="0.077" style="stop-color:#CFF9CF"/>
			<stop  offset="0.2221" style="stop-color:#E5E8AA"/>
			<stop  offset="0.3446" style="stop-color:#FBD786"/>
			<stop  offset="1" style="stop-color:#F7797D"/>
			<a:midPointStop  offset="0" style="stop-color:#C6FFDD"/>
			<a:midPointStop  offset="0.5648" style="stop-color:#C6FFDD"/>
			<a:midPointStop  offset="0.3446" style="stop-color:#FBD786"/>
			<a:midPointStop  offset="0.5" style="stop-color:#FBD786"/>
			<a:midPointStop  offset="1" style="stop-color:#F7797D"/>
		</linearGradient>
		<path fill="url(#SVGID_1_)" d="M220.255,187.606c4.489,0,8.165-3.676,8.165-8.165v-26.645l30.326-7.854v20.94
			c-1.338-0.956-2.906-1.604-4.665-1.604c-4.489,0-8.165,3.676-8.165,8.165c0,4.489,3.676,8.164,8.165,8.164
			c4.488,0,8.164-3.675,8.164-8.164v-39.074c0.008-0.966-0.769-1.756-1.736-1.763c-0.077-0.001-0.155,0.004-0.232,0.014
			c-0.074,0.013-0.147,0.031-0.219,0.054l-33.824,8.748c-0.773,0.199-1.313,0.897-1.313,1.695v30.763
			c-1.338-0.956-2.906-1.604-4.666-1.604c-4.488,0-8.164,3.677-8.164,8.165C212.091,183.93,215.767,187.606,220.255,187.606z
			 M258.746,172.443c0,2.597-2.068,4.665-4.665,4.665c-2.598,0-4.666-2.068-4.666-4.665c0-2.597,2.068-4.666,4.666-4.666
			c2.456,0,4.437,1.86,4.647,4.247c0.004,0.054,0.009,0.109,0.018,0.164V172.443z M228.42,143.466l30.326-7.837v5.704l-30.326,7.855
			V143.466z M220.255,174.776c2.457,0,4.438,1.859,4.648,4.246c0.003,0.055,0.009,0.11,0.018,0.164v0.255
			c0,2.597-2.068,4.666-4.666,4.666c-2.597,0-4.665-2.069-4.665-4.666C215.59,176.844,217.658,174.776,220.255,174.776z
			 M109.408,620.922V566.16l-24.339-24.339v79.101c0,8.893,3.746,14.51,12.17,14.51
			C105.664,635.432,109.408,629.814,109.408,620.922z M628.352,651.696c-14.595-33.416-23.512-51.71-26.243-78.663l28.114,28.113
			h29.02v-43.527c0-22.935-6.817-39.242-18.555-47.943l-94.624-94.625v-56.763l-56.165-56.165V236.18l28.543,28.543l0.008-1.304
			v1.726h27.614v-59.442c0-21.844-7.956-39.135-21.639-47.624L384.972,18.627c5.867,9.122,9.091,21.176,9.091,35.076v59.442h-27.615
			V50.426c0-8.892-4.68-15.913-14.042-15.913c-9.828,0-14.509,7.021-14.509,15.913v219.049c0,8.893,4.681,15.914,14.509,15.914
			c9.362,0,14.042-7.021,14.042-15.914v-63.187h27.615v59.911c0,31.827-16.381,53.358-42.593,53.358
			c-25.275,0-46.337-21.531-46.337-53.358V53.703c0-1.606,0.069-3.182,0.177-4.738l-31.014-31.013
			c6.958,9.16,11.208,21.336,11.208,35.406v212.496c0,31.827-21.062,53.357-46.337,53.357s-46.337-21.53-46.337-53.357V55.104
			L141.817,4.09v279.426h41.188v32.296h-73.597v-11.68h0.113V48.521L76.436,15.436l0.004,0.013
			c7.098,7.466,12.023,19.358,12.023,37.787v68.335c0,16.851-5.618,28.552-18.255,35.572c12.637,7.49,18.255,19.191,18.255,35.572
			v73.953c0,39.783-22.935,49.145-41.189,49.145H0l109.408,109.407v-71.287h32.296v265.586c0,29.955-17.786,50.08-43.061,50.08
			c-8.131,0-15.577-2.093-21.946-5.915h0l137.789,137.79c7.78,12.632,20.745,20.125,36.158,20.125
			c16.256,0,29.404-8.335,36.725-22.245l18.501,18.501h29.019l2.742-31.896l31.896,31.896h33.7l-1.596-16.102l16.102,16.102h28.084
			v-23.401l23.401,23.401h25.274l2.423-21.916l21.916,21.916h30.892v-41.812l29.058,29.058c7.97,10.669,20.094,16.498,35.531,16.498
			c18.722,0,46.337-11.232,46.337-59.91C660.646,728.925,645.669,690.545,628.352,651.696z M217.525,665.854l-3.277-59.91h-26.211
			l-5.149,59.91h-29.019l31.36-311.722h35.103l30.892,311.722H217.525z M397.721,665.854h-30.892V423.871l-4.213,59.911
			l-20.125,182.072h-25.275l-19.19-182.072l-4.212-59.911v241.983H265.73V354.132h44.465l16.85,157.265l5.616,65.06l5.617-65.06
			l16.382-157.265h43.061V665.854z M462.31,669.599c-29.02,0-46.337-20.594-46.337-55.229v-39.784h29.486v43.528
			c0,12.638,5.15,21.53,15.447,21.53c11.232,0,16.381-7.956,16.381-21.53c0-31.359-8.893-58.038-25.275-94.078
			c-14.51-31.359-34.635-79.569-34.635-111.865c0-36.039,14.51-61.782,47.741-61.782c25.743,0,42.124,19.658,42.124,55.231v43.527
			h-29.02v-45.868c0-14.042-4.68-20.595-13.104-20.595c-9.361,0-15.913,6.085-15.913,19.19c0,38.849,9.361,57.103,27.146,97.823
			c17.317,38.849,32.295,77.229,32.295,109.992C508.646,658.366,481.031,669.599,462.31,669.599z M190.845,572.244h21.063
			l-8.893-140.884L190.845,572.244z M56.634,126.25V52.299c0-10.765-4.212-14.978-10.296-14.978H32.764v105.312h12.169
			C51.954,142.633,56.634,137.016,56.634,126.25z M56.634,267.602V188.97c0-10.298-4.68-16.382-11.701-16.382H32.764v110.46h13.574
			C52.422,283.048,56.634,278.368,56.634,267.602z"/>
	</g>
</g>
</svg>
